<?xml version="1.0" encoding="UTF-8"?>
<svg width="124px" height="96px" viewBox="0 0 124 96" version="1.1" xmlns="http://www.w3.org/2000/svg" xmlns:xlink="http://www.w3.org/1999/xlink">
    <!-- Generator: Sketch 48.2 (47327) - http://www.bohemiancoding.com/sketch -->
    <title>Plimp Symmetry</title>
    <desc>Created with Sketch.</desc>
    <defs></defs>
    <g id="Page-1" stroke="none" stroke-width="1" fill="none" fill-rule="evenodd">
        <g id="Plimp-Symmetry" transform="translate(1.000000, 0.000000)">
            <g id="face" transform="translate(22.000000, 0.000000)" fill="#EAD4A2">
                <path d="M21.2309518,3.03746193 C22.9613968,1.55685335 36.5389824,1.25176532 44.1644515,2.05482155 C51.7899206,2.85787778 40.368269,96.7969754 35.9097141,96.4069023 C31.4511591,96.0168293 22.1921373,94.1050106 19.8735299,92.0560166 C17.5549226,90.0070226 18.955413,87.5171954 17.726069,84.3177354 C16.4967251,81.1182753 16.1332956,81.230333 14.791987,78.830919 C13.4506784,76.4315049 13.1737245,65.6287627 11.6938424,59.8890244 C10.2139604,54.1492862 7.85595182,53.2234971 6.47313932,49.6204697 C5.09032682,46.0174424 3.37280361,38.6315174 4.16454557,34.7210557 C4.95628754,30.8105939 8.43802375,24.8037511 11.041987,20.0784776 C13.6459502,15.353204 16.740456,11.7010633 17.726069,10.1116807 C18.711682,8.52229809 19.5005069,4.51807051 21.2309518,3.03746193 Z" transform="translate(25.343605, 49.014808) rotate(-5.000000) translate(-25.343605, -49.014808) "></path>
            </g>
            <g id="face" transform="translate(75.500000, 49.000000) scale(-1, 1) translate(-75.500000, -49.000000) translate(51.000000, 0.000000)" fill="#EAD4A2">
                <path d="M21.2309518,3.03746193 C22.9613968,1.55685335 36.5389824,1.25176532 44.1644515,2.05482155 C51.7899206,2.85787778 40.368269,96.7969754 35.9097141,96.4069023 C31.4511591,96.0168293 22.1921373,94.1050106 19.8735299,92.0560166 C17.5549226,90.0070226 18.955413,87.5171954 17.726069,84.3177354 C16.4967251,81.1182753 16.1332956,81.230333 14.791987,78.830919 C13.4506784,76.4315049 13.1737245,65.6287627 11.6938424,59.8890244 C10.2139604,54.1492862 7.85595182,53.2234971 6.47313932,49.6204697 C5.09032682,46.0174424 3.37280361,38.6315174 4.16454557,34.7210557 C4.95628754,30.8105939 8.43802375,24.8037511 11.041987,20.0784776 C13.6459502,15.353204 16.740456,11.7010633 17.726069,10.1116807 C18.711682,8.52229809 19.5005069,4.51807051 21.2309518,3.03746193 Z" transform="translate(25.343605, 49.014808) rotate(-5.000000) translate(-25.343605, -49.014808) "></path>
            </g>
            <g id="ear" transform="translate(0.000000, 3.000000)">
                <g id="left-ear" transform="translate(-1.000000, -1.000000)">
                    <path d="M44.3848438,4.25161134 C44.3848438,2.97636722 43.8658008,1.66176759 42.7271289,1.15151369 C41.5884571,0.64125978 32.5814551,1.21953128 30.4927539,1.66176759 C28.4040527,2.10400391 2.12329102,8.61962891 1.04011721,13.6974121 C-0.043056602,18.7751953 10.0441016,49.6965821 11.4810352,52.2691895 C12.9179687,54.8417969 18.8168067,58.2957032 21.1138477,57.9425293 C23.4108887,57.5893555 28.8072071,51.2354981 29.6499805,49.738916 C30.4927539,48.242334 28.8072071,38.4941895 28.8072071,35.917627 C28.8072071,33.3410645 30.4615039,28.8028809 31.8067188,26.7604004 C33.1519336,24.7179199 40.5039844,16.2530762 40.7964649,14.5509277 C41.0889453,12.8487793 44.3848438,5.52685547 44.3848438,4.25161134 Z" id="ear-left" fill="#977044"></path>
                    <path d="M44.3994141,4.3581543 C42.4223633,5.39941406 39.1948242,8.91711426 37.0053711,12.331543 C34.815918,15.7459717 30.8015137,23.8649902 31.2387695,27.1337891 C34.1633301,26.2487793 39.1977539,17.7312012 40.423584,15.2026367 C41.6494141,12.6740723 44.7587891,5.69335938 44.3994141,4.3581543 Z" id="Path-2" fill="#4C371F"></path>
                </g>
            </g>
            <g id="ear" transform="translate(100.000000, 31.500000) scale(-1, 1) translate(-100.000000, -31.500000) translate(78.000000, 3.000000)">
                <g id="left-ear" transform="translate(-1.000000, -1.000000)">
                    <path d="M44.3848438,4.25161134 C44.3848438,2.97636722 43.8658008,1.66176759 42.7271289,1.15151369 C41.5884571,0.64125978 32.5814551,1.21953128 30.4927539,1.66176759 C28.4040527,2.10400391 2.12329102,8.61962891 1.04011721,13.6974121 C-0.043056602,18.7751953 10.0441016,49.6965821 11.4810352,52.2691895 C12.9179687,54.8417969 18.8168067,58.2957032 21.1138477,57.9425293 C23.4108887,57.5893555 28.8072071,51.2354981 29.6499805,49.738916 C30.4927539,48.242334 28.8072071,38.4941895 28.8072071,35.917627 C28.8072071,33.3410645 30.4615039,28.8028809 31.8067188,26.7604004 C33.1519336,24.7179199 40.5039844,16.2530762 40.7964649,14.5509277 C41.0889453,12.8487793 44.3848438,5.52685547 44.3848438,4.25161134 Z" id="ear-left" fill="#977044"></path>
                    <path d="M44.3994141,4.3581543 C42.4223633,5.39941406 39.1948242,8.91711426 37.0053711,12.331543 C34.815918,15.7459717 30.8015137,23.8649902 31.2387695,27.1337891 C34.1633301,26.2487793 39.1977539,17.7312012 40.423584,15.2026367 C41.6494141,12.6740723 44.7587891,5.69335938 44.3994141,4.3581543 Z" id="Path-2" fill="#4C371F"></path>
                </g>
            </g>
            <ellipse id="mouth" fill="#2E2E2E" cx="61" cy="92.5" rx="14" ry="2.5"></ellipse>
            <ellipse id="nose" fill="#2E2E2E" cx="61" cy="82" rx="12" ry="9"></ellipse>
            <g id="left-eye" transform="translate(28.000000, 31.000000)">
                <g>
                    <ellipse id="left-eye-lid" fill="#977044" transform="translate(14.179199, 15.320068) rotate(-23.000000) translate(-14.179199, -15.320068) " cx="14.1791992" cy="15.3200684" rx="10" ry="11.5"></ellipse>
                    <ellipse fill="#2E2E2E" transform="translate(14.179199, 13.696152) rotate(-150.000000) translate(-14.179199, -13.696152) " cx="14.1791992" cy="13.6961524" rx="9" ry="6"></ellipse>
                    <circle id="left-eye-circle" fill="#2E2E2E" cx="13.3849706" cy="13" r="7"></circle>
                    <g id="right-eye-sparkle" opacity="0.506736866" transform="translate(11.384971, 10.500000) scale(-1, 1) translate(-11.384971, -10.500000) translate(8.384971, 8.000000)" fill="#FFFFFF">
                        <circle id="Oval-2" cx="4" cy="3" r="2"></circle>
                        <circle id="Oval" cx="1" cy="1" r="1"></circle>
                    </g>
                </g>
            </g>
            <g id="left-eye" transform="translate(80.000000, 46.000000) scale(-1, 1) translate(-80.000000, -46.000000) translate(66.000000, 31.000000)">
                <g>
                    <ellipse id="left-eye-lid" fill="#977044" transform="translate(14.179199, 15.320068) rotate(-23.000000) translate(-14.179199, -15.320068) " cx="14.1791992" cy="15.3200684" rx="10" ry="11.5"></ellipse>
                    <ellipse fill="#2E2E2E" transform="translate(14.179199, 13.696152) rotate(-150.000000) translate(-14.179199, -13.696152) " cx="14.1791992" cy="13.6961524" rx="9" ry="6"></ellipse>
                    <circle id="left-eye-circle" fill="#2E2E2E" cx="13.3849706" cy="13" r="7"></circle>
                    <g id="right-eye-sparkle" opacity="0.506736866" transform="translate(11.384971, 10.500000) scale(-1, 1) translate(-11.384971, -10.500000) translate(8.384971, 8.000000)" fill="#FFFFFF">
                        <circle id="Oval-2" cx="4" cy="3" r="2"></circle>
                        <circle id="Oval" cx="1" cy="1" r="1"></circle>
                    </g>
                </g>
            </g>
        </g>
    </g>
</svg>